<svg id="Layer_1" data-name="Layer 1" xmlns="http://www.w3.org/2000/svg" viewBox="0 0 962.78 155.6"><title>B1TC0DE</title><path d="M59.71,101.81h56c29.4,0,42.8,18,42.8,46.2,0,11.6-2.6,22.2-13.2,31.6,11.4,10.8,13.2,21.4,13.2,36.2,0,26.2-17.4,41.6-42.8,41.6h-56Zm20,67.8h36c14.4,0,22.8-6.4,22.8-21.6,0-16.8-4.6-26.2-22.8-26.2h-36Zm0,67.8h36c14.4,0,22.8-6.4,22.8-21.6,0-16.8-4.6-26.2-22.8-26.2h-36Z" transform="translate(-59.71 -101.81)"/><path d="M282.5,237.4V197c0-5.8,2.6-10,10-10s10,4.2,10,10v50.4c0,7.2-4.8,10-10,10H213.7c-5.2,0-10-2.8-10-10s4.8-10,10-10h29.4V121.81H213.7c-5.2,0-10-2.8-10-10s4.8-10,10-10h49.4V237.4Z" transform="translate(-59.71 -101.81)"/><path d="M367.7,121.81V129c0,6.4-2.8,10-10,10s-10-3.6-10-10v-27.2h98.8V129c0,6.4-2.8,10-10,10s-10-3.6-10-10v-7.2H407.1V247.4c0,6.4-2.8,10-10,10s-10-3.6-10-10V121.81Z" transform="translate(-59.71 -101.81)"/><path d="M545.5,257.4c-15,0-23.6-6-30-19l-18.4-37.2c-3.4-6.8-5.4-13.2-5.4-21,0-8.8,1.6-14.2,5.6-22.2l18.4-37c6.8-13.8,15.4-19.2,30.8-19.2h34c4.4,0,10,2.4,10,10,0,7.2-5.4,10-10,10H547.1c-8.6,0-10,.8-13.8,8.4L515.9,165c-2.6,5.4-4.2,9-4.2,15.2,0,5.6,1.8,9,4.2,13.8l17,34.6c4,8.2,6,8.8,15,8.8h32.6c4.4,0,10,2.4,10,10,0,7.2-5.4,10-10,10Z" transform="translate(-59.71 -101.81)"/><path d="M714.49,101.81a20.06,20.06,0,0,1,20,20V237.4a19.68,19.68,0,0,1-20,20H655.7a19.68,19.68,0,0,1-20-20V121.81a20.06,20.06,0,0,1,20-20Zm0,135.6V121.81H655.7V237.4Z" transform="translate(-59.71 -101.81)"/><path d="M799.29,121.81h-7.4c-6.6,0-12.2-2.4-12.2-10,0-7.2,5.4-10,11.6-10h33.4c15.6,0,23.4,6.4,30.2,20l17.6,35.2c4,8.2,6,14,6,23.2,0,8-2.2,14.8-5.8,22l-18.2,36.4c-7,14.2-16,18.8-31.6,18.8h-33.2c-5.2,0-10-2.8-10-10s4.8-10,10-10h9.6Zm20,115.6h3.8c8.4,0,10.4-1,14-8.4l17.6-35.6c2.2-4.6,3.8-8,3.8-13,0-6.8-2.2-10.6-5-16.4l-16.6-33.8c-4.2-8.6-6-8.4-15.2-8.4h-2.4Z" transform="translate(-59.71 -101.81)"/><path d="M1012.49,237.4c5.2,0,10,2.8,10,10s-4.8,10-10,10h-88.8V101.81h88.8c5.2,0,10,2.8,10,10s-4.8,10-10,10h-68.8v47.8h29.4c5.2,0,10,2.8,10,10s-4.8,10-10,10h-29.4v47.8Z" transform="translate(-59.71 -101.81)"/></svg>